<?xml version='1.0' encoding='utf-8'?>
<svg xmlns="http://www.w3.org/2000/svg" viewBox="0 0 64 64"><g id="social_media" data-name="social media"><path d="M60.88,58l-.46,1.56A2,2,0,0,1,58.5,61h-19a2,2,0,0,1-1.92-1.44L37.12,58H47v1h4V58Z" style="fill:#ffdaaa"/><path d="M59,45v8a2.006,2.006,0,0,1-2,2H41a2.006,2.006,0,0,1-2-2V45a2.006,2.006,0,0,1,2-2H57A2.006,2.006,0,0,1,59,45Z" style="fill:#57a4ff"/><path d="M46.92,43H41a2.006,2.006,0,0,0-2,2v3H17V43.19A12,12,0,0,1,28,36h8a12.008,12.008,0,0,1,10.92,7Z" style="fill:#00d7df"/><path d="M46.92,43h-4A12.008,12.008,0,0,0,32,36h4a12.008,12.008,0,0,1,10.92,7Z" style="fill:#00b6bd"/><path d="M57.79,5.67a9.881,9.881,0,0,0-6.51-2.66,3.925,3.925,0,0,0-.56,0A10.01,10.01,0,0,0,41,13a10.01,10.01,0,0,0,9.72,9.99,3.925,3.925,0,0,0,.56,0A10.01,10.01,0,0,0,61,13,9.918,9.918,0,0,0,57.79,5.67Z" style="fill:#00d7df"/><path d="M41,27v1a1,1,0,0,1-1,1H38V26h2A1,1,0,0,1,41,27Z" style="fill:#c0ab91"/><path d="M41,22v1l-3,3V23l-8-2-4,2v3l-3-3V22a6,6,0,0,1,6-6h6A6,6,0,0,1,41,22Z" style="fill:#57a4ff"/><path d="M38,26v3a6,6,0,0,1-12,0V23l4-2,8,2Z" style="fill:#ffdaaa"/><path d="M38,23v6a6,6,0,0,1-6,6,5.47,5.47,0,0,1-1-.09A5.99,5.99,0,0,0,36,29V23l-6.67-1.67L30,21Z" style="fill:#ffc477"/><polygon points="36 36 34.76 44 29.24 44 28 36 36 36" style="fill:#ffde55"/><polygon points="36 36 34.76 44 32.76 44 34 36 36 36" style="fill:#ffcd00"/><path d="M26,26v3H24a1,1,0,0,1-1-1V27a1,1,0,0,1,1-1Z" style="fill:#c0ab91"/><path d="M23,13v2a2.006,2.006,0,0,1-2,2H5a2.006,2.006,0,0,1-2-2V13Z" style="fill:#e0e0e2"/><path d="M23,5v8H3V5A2.006,2.006,0,0,1,5,3H21A2.006,2.006,0,0,1,23,5Z" style="fill:#57a4ff"/><path d="M59,45v8a2.006,2.006,0,0,1-2,2H55a2.006,2.006,0,0,0,2-2V45a2.006,2.006,0,0,0-2-2h2A2.006,2.006,0,0,1,59,45Z" style="fill:#2488ff"/><path d="M23,5v8H21V5a2.006,2.006,0,0,0-2-2h2A2.006,2.006,0,0,1,23,5Z" style="fill:#2488ff"/><path d="M17,48V59a2.006,2.006,0,0,1-2,2H7a2.006,2.006,0,0,1-2-2V43a2.006,2.006,0,0,1,2-2H8v1a2.006,2.006,0,0,0,2,2h2a2.006,2.006,0,0,0,2-2V41h1a2.006,2.006,0,0,1,2,2v5Z" style="fill:#00d7df"/><path d="M61,13a10.01,10.01,0,0,1-9.72,9.99,3.925,3.925,0,0,1-.56,0c-.24-.01-.48-.02-.72-.05a9.827,9.827,0,0,0,5.79-2.61,9.974,9.974,0,0,0,0-14.66A9.827,9.827,0,0,0,50,3.06c.24-.03.48-.04.72-.05a3.925,3.925,0,0,1,.56,0A10.01,10.01,0,0,1,61,13Z" style="fill:#00b6bd"/><path d="M17,43V59a2.006,2.006,0,0,1-2,2H13a2.006,2.006,0,0,0,2-2V43a2,2,0,0,0-1-1.73V41h1A2.006,2.006,0,0,1,17,43Z" style="fill:#00b6bd"/><polygon points="15.93 17 16.91 21 9.09 21 10.07 17 15.93 17" style="fill:#ffde55"/><path d="M14,41v1a2.006,2.006,0,0,1-2,2H10a2.006,2.006,0,0,1-2-2V41Z" style="fill:#ffde55"/><path d="M41,22v1l-3,3V24l1-1V22a6,6,0,0,0-6-6h2A6,6,0,0,1,41,22Z" style="fill:#2488ff"/><path d="M60.875,57H51a1,1,0,0,0-1,1H48a1,1,0,0,0-1-1H37.125a1,1,0,0,0-.96,1.28l.455,1.56A3.017,3.017,0,0,0,39.5,62h19a3.017,3.017,0,0,0,2.88-2.16l.455-1.56a1,1,0,0,0-.96-1.28ZM39.5,60a1.006,1.006,0,0,1-.96-.721L38.459,59H46a1,1,0,0,0,1,1Zm19.96-.721A1.006,1.006,0,0,1,58.5,60H51a1,1,0,0,0,1-1h7.541Z"/><rect x="48" y="48" width="2" height="2"/><rect x="52" y="48" width="2" height="2"/><rect x="44" y="48" width="2" height="2"/><path d="M51,24A11,11,0,1,0,40,13,11.013,11.013,0,0,0,51,24ZM44.7,14a17.629,17.629,0,0,0,.7,4.21,10.987,10.987,0,0,0-1.12.756A8.96,8.96,0,0,1,42.059,14ZM50,21.71a5.526,5.526,0,0,1-2.067-2.5A8.95,8.95,0,0,1,50,18.728Zm-3.521-.94c-.232-.136-.458-.28-.677-.436.109-.078.218-.157.33-.23C46.243,20.334,46.358,20.557,46.479,20.77ZM52,21.71V18.728a8.95,8.95,0,0,1,2.067.484A5.526,5.526,0,0,1,52,21.71ZM55.868,20.1c.112.073.221.152.33.23-.219.156-.445.3-.677.436C55.642,20.557,55.757,20.334,55.868,20.1ZM52,16.714V14h3.305a15.584,15.584,0,0,1-.539,3.339A10.9,10.9,0,0,0,52,16.714ZM52,12V9.286a10.9,10.9,0,0,0,2.766-.625A15.584,15.584,0,0,1,55.305,12Zm0-4.728V4.29a5.526,5.526,0,0,1,2.067,2.5A8.95,8.95,0,0,1,52,7.272ZM55.521,5.23c.232.136.458.28.677.436-.109.078-.218.157-.33.23C55.757,5.666,55.642,5.443,55.521,5.23ZM50,4.29V7.272a8.95,8.95,0,0,1-2.067-.484A5.526,5.526,0,0,1,50,4.29ZM46.132,5.9c-.112-.073-.221-.152-.33-.23.219-.156.445-.3.677-.436C46.358,5.443,46.243,5.666,46.132,5.9ZM50,9.286V12H46.7a15.584,15.584,0,0,1,.539-3.339A10.9,10.9,0,0,0,50,9.286ZM50,14v2.714a10.9,10.9,0,0,0-2.766.625A15.584,15.584,0,0,1,46.7,14Zm7.72,4.966a10.987,10.987,0,0,0-1.12-.756,17.629,17.629,0,0,0,.7-4.21h2.636A8.96,8.96,0,0,1,57.72,18.966ZM59.941,12H57.305a17.629,17.629,0,0,0-.7-4.21,10.987,10.987,0,0,0,1.12-.756A8.96,8.96,0,0,1,59.941,12ZM44.28,7.034a10.987,10.987,0,0,0,1.12.756A17.629,17.629,0,0,0,44.7,12H42.059A8.96,8.96,0,0,1,44.28,7.034Z"/><path d="M8.791,18l-.676,2.763A1,1,0,0,0,9.087,22h7.826a1,1,0,0,0,.972-1.237L17.209,18H21a3,3,0,0,0,3-3V5a3,3,0,0,0-3-3H5A3,3,0,0,0,2,5V15a3,3,0,0,0,3,3Zm6.848,2H10.361l.49-2h4.3ZM5,4H21a1,1,0,0,1,1,1v7H4V5A1,1,0,0,1,5,4ZM4,15V14H22v1a1,1,0,0,1-1,1H5A1,1,0,0,1,4,15Z"/><path d="M54,26H52v3H45v2h8a1,1,0,0,0,1-1Z"/><path d="M38,49v4a3,3,0,0,0,3,3H57a3,3,0,0,0,3-3V45a3,3,0,0,0-3-3H47.53A12.939,12.939,0,0,0,36,35h-.413a7.005,7.005,0,0,0,3.333-5H40a2,2,0,0,0,2-2V27a2,2,0,0,0-1.624-1.962l1.331-1.331A1,1,0,0,0,42,23V22a7.009,7.009,0,0,0-7-7H29a7.009,7.009,0,0,0-7,7v1a1,1,0,0,0,.293.707l1.331,1.331A2,2,0,0,0,22,27v1a2,2,0,0,0,2,2h1.08a7.005,7.005,0,0,0,3.333,5H28a13,13,0,0,0-10.877,5.883A2.99,2.99,0,0,0,15,40H7a3,3,0,0,0-3,3V59a3,3,0,0,0,3,3h8a3,3,0,0,0,3-3V49Zm2-21H39V27h1ZM24,22a5.006,5.006,0,0,1,5-5h6a5.006,5.006,0,0,1,5,5v.586l-1,1V23a1,1,0,0,0-.758-.97l-8-2a.99.99,0,0,0-.689.075l-4,2A1,1,0,0,0,25,23v.586l-1-1Zm0,5h1v1H24Zm3,2V23.618l3.116-1.558L37,23.781V29a5,5,0,0,1-10,0ZM58,45v8a1,1,0,0,1-1,1H41a1,1,0,0,1-1-1V45a1,1,0,0,1,1-1H57A1,1,0,0,1,58,45ZM34.833,37,33.9,43H30.1l-.931-6Zm-7.685.034,1.105,7.119a1,1,0,0,0,.988.847h5.518a1,1,0,0,0,.988-.847l1.1-7.112A10.886,10.886,0,0,1,45.219,42H41a3,3,0,0,0-3,3v2H18V43.417A11,11,0,0,1,27.148,37.034ZM13,42a1,1,0,0,1-1,1H10a1,1,0,0,1-1-1Zm3,17a1,1,0,0,1-1,1H7a1,1,0,0,1-1-1V43a1,1,0,0,1,1-1,3,3,0,0,0,3,3h2a3,3,0,0,0,3-3,1,1,0,0,1,1,1Z"/><path d="M54,38V34a1,1,0,0,0-1-1H45v2h7v3Z"/><path d="M19,29H12V26H10v4a1,1,0,0,0,1,1h8Z"/><path d="M10,34v4h2V35h7V33H11A1,1,0,0,0,10,34Z"/><rect x="12" y="7" width="2" height="2"/><rect x="16" y="7" width="2" height="2"/><rect x="8" y="7" width="2" height="2"/><rect x="10" y="52" width="2" height="2"/><rect x="10" y="48" width="2" height="2"/><rect x="10" y="56" width="2" height="2"/></g></svg>